<?xml version="1.0" encoding="UTF-8"?>
<svg xmlns="http://www.w3.org/2000/svg" xmlns:xlink="http://www.w3.org/1999/xlink" width="171pt" height="171pt" viewBox="0 0 171 171" version="1.1">
<g id="surface1">
<path style=" stroke:none;fill-rule:nonzero;fill:rgb(0%,0%,0%);fill-opacity:1;" d="M 43.109375 84.585938 C 40.277344 100.675781 37.953125 113.867188 37.960938 113.902344 C 37.960938 113.945312 47.171875 113.972656 58.421875 113.972656 L 78.875 113.972656 L 79.976562 107.832031 C 80.574219 104.464844 81.089844 101.601562 81.113281 101.460938 L 81.164062 101.230469 L 54.960938 101.230469 L 54.992188 100.992188 C 55.011719 100.863281 55.371094 98.753906 55.796875 96.289062 L 56.558594 91.828125 L 67.390625 91.828125 C 73.359375 91.828125 78.234375 91.800781 78.234375 91.757812 C 78.234375 91.722656 78.738281 88.910156 79.34375 85.507812 C 79.960938 82.097656 80.457031 79.242188 80.457031 79.15625 C 80.457031 79.011719 80.046875 79.003906 69.65625 79.003906 L 58.859375 79.003906 L 59.78125 73.605469 C 60.285156 70.632812 60.714844 68.195312 60.730469 68.175781 C 60.746094 68.160156 70.359375 68.152344 82.089844 68.160156 L 103.421875 68.1875 L 99.417969 90.929688 C 97.222656 103.4375 95.425781 113.742188 95.425781 113.816406 C 95.417969 113.964844 95.828125 113.972656 102.804688 113.972656 L 110.191406 113.972656 L 110.242188 113.730469 C 110.269531 113.605469 112.066406 103.402344 114.226562 91.058594 C 116.390625 78.710938 118.1875 68.511719 118.210938 68.375 L 118.261719 68.144531 L 128.25 68.144531 C 137.6875 68.144531 138.246094 68.136719 138.289062 67.988281 C 138.332031 67.863281 140.5625 55.445312 140.5625 55.351562 C 140.5625 55.335938 121.597656 55.320312 98.417969 55.320312 L 56.265625 55.320312 L 56.183594 55.761719 C 56.019531 56.59375 55.234375 61.011719 55.234375 61.117188 C 55.234375 61.183594 55.4375 61.21875 55.910156 61.21875 C 56.558594 61.21875 56.601562 61.199219 57.421875 60.757812 C 60.859375 58.890625 64.835938 56.859375 65.152344 56.789062 C 65.390625 56.738281 68.800781 56.746094 74.207031 56.804688 C 82.574219 56.898438 82.882812 56.890625 83.027344 56.746094 C 83.421875 56.328125 84.226562 56.308594 84.628906 56.710938 C 84.910156 56.996094 84.988281 57.695312 84.78125 58.011719 C 84.371094 58.636719 83.636719 58.730469 83.070312 58.234375 C 82.933594 58.113281 82.027344 58.089844 74.195312 58.003906 L 65.476562 57.910156 L 64.5 58.4375 L 63.527344 58.96875 L 64.996094 59.019531 C 67.519531 59.125 68.410156 59.097656 68.578125 58.945312 C 69.023438 58.542969 69.785156 58.542969 70.179688 58.933594 C 70.460938 59.21875 70.539062 59.917969 70.332031 60.234375 C 69.914062 60.867188 69.179688 60.953125 68.605469 60.441406 C 68.441406 60.285156 68.175781 60.277344 64.800781 60.21875 L 61.15625 60.167969 L 60.210938 60.671875 L 59.25 61.175781 L 70.496094 61.199219 L 81.746094 61.21875 L 82.40625 60.84375 C 82.765625 60.636719 83.652344 60.15625 84.371094 59.773438 L 85.671875 59.082031 L 88.9375 59.082031 C 91.765625 59.082031 92.203125 59.0625 92.289062 58.953125 C 92.441406 58.738281 93.007812 58.585938 93.347656 58.660156 C 93.8125 58.765625 94.066406 59.070312 94.117188 59.585938 C 94.160156 60.089844 94.023438 60.363281 93.597656 60.621094 C 93.160156 60.882812 92.578125 60.800781 92.261719 60.414062 C 92.167969 60.304688 91.742188 60.285156 89.109375 60.285156 L 86.0625 60.292969 L 85.199219 60.730469 L 84.347656 61.175781 L 89.425781 61.199219 L 94.496094 61.21875 L 95.496094 60.695312 C 96.042969 60.40625 97.042969 59.867188 97.726562 59.507812 C 98.410156 59.140625 99.785156 58.414062 100.796875 57.882812 L 102.625 56.917969 L 109.894531 56.96875 C 116.332031 57.019531 117.167969 57.011719 117.253906 56.890625 C 117.410156 56.6875 117.972656 56.53125 118.316406 56.609375 C 118.777344 56.710938 119.03125 57.019531 119.085938 57.53125 C 119.128906 58.039062 118.992188 58.3125 118.5625 58.566406 C 118.117188 58.839844 117.691406 58.78125 117.253906 58.378906 C 117.074219 58.226562 116.820312 58.21875 110.0625 58.164062 L 103.0625 58.113281 L 102.164062 58.59375 L 101.273438 59.082031 L 104.0625 59.082031 C 106.78125 59.082031 106.859375 59.070312 106.96875 58.910156 C 107.140625 58.652344 107.6875 58.492188 108.054688 58.574219 C 108.515625 58.679688 108.773438 58.988281 108.824219 59.5 C 108.867188 60.003906 108.730469 60.277344 108.304688 60.535156 C 107.933594 60.765625 107.558594 60.746094 107.183594 60.492188 L 106.867188 60.277344 L 98.898438 60.277344 L 98.050781 60.722656 C 97.582031 60.96875 97.257812 61.183594 97.316406 61.191406 C 97.375 61.199219 101.855469 61.226562 107.257812 61.242188 L 117.09375 61.285156 L 119.527344 60.003906 C 123.625 57.839844 124.691406 57.269531 124.90625 57.105469 C 125.09375 56.953125 125.367188 56.941406 130.003906 56.941406 C 134.789062 56.941406 134.894531 56.941406 135.046875 56.773438 C 135.242188 56.558594 135.773438 56.386719 136.054688 56.464844 C 136.390625 56.542969 136.78125 56.925781 136.875 57.25 C 136.988281 57.667969 136.851562 58.082031 136.484375 58.398438 C 136.203125 58.644531 136.132812 58.671875 135.757812 58.636719 C 135.457031 58.601562 135.269531 58.523438 135.097656 58.363281 L 134.867188 58.140625 L 125.726562 58.140625 L 124.871094 58.609375 L 124.019531 59.070312 L 128.472656 59.082031 C 132.824219 59.082031 132.925781 59.082031 133.082031 58.910156 C 133.277344 58.695312 133.808594 58.523438 134.089844 58.601562 C 134.421875 58.679688 134.816406 59.0625 134.910156 59.386719 C 135.023438 59.808594 134.886719 60.21875 134.515625 60.535156 C 134.234375 60.78125 134.167969 60.808594 133.789062 60.773438 C 133.492188 60.738281 133.304688 60.664062 133.132812 60.5 L 132.902344 60.277344 L 121.640625 60.277344 L 120.707031 60.765625 L 119.769531 61.261719 L 128.085938 61.285156 L 136.40625 61.304688 L 136.613281 61.046875 C 136.835938 60.765625 137.355469 60.566406 137.679688 60.652344 C 138.015625 60.730469 138.40625 61.117188 138.5 61.441406 C 138.613281 61.859375 138.476562 62.269531 138.109375 62.585938 C 137.824219 62.832031 137.757812 62.859375 137.382812 62.824219 C 137.160156 62.800781 136.902344 62.722656 136.816406 62.636719 C 136.699219 62.535156 136.492188 62.5 135.960938 62.5 L 135.269531 62.5 L 133.105469 63.621094 C 131.917969 64.234375 130.105469 65.183594 129.078125 65.722656 C 127.566406 66.527344 127.121094 66.714844 126.683594 66.777344 C 126.386719 66.816406 124.113281 66.835938 121.511719 66.800781 C 116.929688 66.75 116.878906 66.75 116.683594 66.921875 C 116.101562 67.460938 115.382812 67.382812 114.996094 66.75 C 114.605469 66.109375 114.996094 65.226562 115.722656 65.152344 C 116.125 65.109375 116.367188 65.160156 116.597656 65.355469 L 116.835938 65.554688 L 121.710938 65.613281 L 126.582031 65.671875 L 127.523438 65.160156 L 128.464844 64.636719 L 125.164062 64.636719 C 122.265625 64.636719 121.847656 64.65625 121.742188 64.773438 C 121.289062 65.320312 120.417969 65.238281 120.042969 64.613281 C 119.835938 64.277344 119.828125 63.945312 120.007812 63.5625 C 120.289062 62.972656 121.144531 62.800781 121.648438 63.226562 L 121.90625 63.441406 L 130.773438 63.441406 L 131.628906 62.988281 L 132.480469 62.542969 L 122.605469 62.492188 C 117.179688 62.457031 112.707031 62.464844 112.671875 62.492188 C 112.636719 62.519531 112.277344 64.382812 111.867188 66.621094 L 111.132812 70.691406 L 111.875 71.570312 C 112.296875 72.058594 112.679688 72.496094 112.75 72.53125 C 112.808594 72.574219 112.953125 72.742188 113.066406 72.914062 C 113.175781 73.085938 113.621094 73.648438 114.058594 74.171875 C 114.972656 75.265625 115.109375 75.523438 115.03125 76.027344 C 114.953125 76.558594 114.417969 79.53125 114.261719 80.277344 C 114.140625 80.855469 114.152344 80.917969 114.28125 81.0625 C 114.492188 81.300781 114.542969 82.019531 114.363281 82.292969 C 114.175781 82.585938 113.730469 82.847656 113.433594 82.847656 C 113.089844 82.847656 112.707031 82.628906 112.519531 82.3125 C 112.226562 81.839844 112.3125 81.351562 112.765625 80.890625 C 112.910156 80.738281 113.03125 80.53125 113.03125 80.429688 C 113.03125 80.328125 113.203125 79.300781 113.414062 78.148438 C 113.628906 76.992188 113.800781 75.976562 113.800781 75.882812 C 113.800781 75.71875 112.980469 74.675781 112.867188 74.691406 C 112.84375 74.691406 112.40625 76.941406 111.910156 79.695312 C 111.097656 84.167969 111.023438 84.703125 111.132812 84.832031 C 111.328125 85.074219 111.371094 85.800781 111.203125 86.054688 C 111.003906 86.355469 110.570312 86.613281 110.253906 86.613281 C 109.910156 86.613281 109.484375 86.339844 109.3125 86.023438 C 109.074219 85.550781 109.175781 85.054688 109.601562 84.660156 C 109.84375 84.429688 109.867188 84.335938 110.84375 78.925781 C 111.722656 74.070312 111.824219 73.402344 111.722656 73.238281 C 111.65625 73.136719 111.433594 72.871094 111.226562 72.648438 L 110.851562 72.230469 L 109.535156 79.53125 C 108.816406 83.542969 108.21875 86.851562 108.207031 86.875 C 108.207031 86.902344 109.039062 87.929688 110.074219 89.167969 L 111.945312 91.40625 L 112.003906 91.980469 C 112.054688 92.460938 112.023438 92.820312 111.773438 94.136719 C 111.613281 95.007812 111.203125 97.316406 110.851562 99.265625 C 110.5 101.214844 109.960938 104.25 109.636719 106.003906 C 109.140625 108.765625 109.082031 109.21875 109.175781 109.371094 C 109.515625 109.917969 109.429688 110.472656 108.953125 110.894531 C 108.671875 111.140625 108.601562 111.167969 108.21875 111.125 C 107.21875 111.03125 106.859375 109.789062 107.652344 109.15625 C 107.882812 108.976562 107.910156 108.875 108.5 105.550781 C 108.832031 103.667969 109.261719 101.285156 109.449219 100.25 C 110.003906 97.214844 110.808594 92.75 110.859375 92.375 C 110.910156 92.039062 110.886719 91.980469 110.457031 91.460938 C 110.199219 91.152344 109.980469 90.894531 109.953125 90.894531 C 109.925781 90.886719 109.679688 92.125 109.40625 93.640625 C 109.132812 95.160156 108.816406 96.898438 108.695312 97.496094 C 108.5 98.511719 108.5 98.605469 108.621094 98.742188 C 109.011719 99.179688 108.9375 99.863281 108.441406 100.292969 C 108.15625 100.539062 108.089844 100.566406 107.703125 100.523438 C 107.386719 100.496094 107.226562 100.429688 107.027344 100.230469 C 106.585938 99.777344 106.617188 98.964844 107.097656 98.589844 C 107.277344 98.445312 107.335938 98.222656 107.601562 96.777344 C 107.753906 95.863281 108.105469 93.9375 108.363281 92.503906 C 108.628906 91.066406 108.839844 89.808594 108.839844 89.707031 C 108.839844 89.550781 107.996094 88.449219 107.933594 88.519531 C 107.917969 88.535156 106.976562 93.65625 105.847656 99.90625 C 104.394531 107.96875 103.824219 111.296875 103.882812 111.371094 C 104.222656 111.773438 104.121094 112.449219 103.652344 112.859375 C 103.371094 113.109375 103.300781 113.132812 102.917969 113.089844 C 102.601562 113.066406 102.4375 112.996094 102.242188 112.800781 C 101.753906 112.3125 101.847656 111.414062 102.410156 111.089844 C 102.644531 110.953125 102.652344 110.925781 104.960938 98.121094 C 106.242188 91.066406 107.277344 85.277344 107.269531 85.269531 C 107.257812 85.253906 106.890625 85.671875 106.464844 86.191406 L 105.679688 87.132812 L 105.035156 90.699219 C 104.675781 92.65625 104.242188 95.066406 104.0625 96.058594 C 102.617188 103.917969 102.558594 104.292969 102.71875 104.472656 C 102.949219 104.730469 103 105.4375 102.824219 105.722656 C 102.625 106.019531 102.191406 106.277344 101.875 106.277344 C 101.351562 106.277344 100.804688 105.738281 100.804688 105.214844 C 100.804688 104.910156 100.941406 104.582031 101.171875 104.371094 C 101.351562 104.199219 101.445312 103.8125 101.992188 100.71875 C 102.582031 97.425781 102.960938 95.367188 103.71875 91.226562 C 103.898438 90.21875 104.054688 89.339844 104.054688 89.261719 C 104.054688 89.175781 103.96875 89.226562 103.8125 89.398438 C 102.863281 90.492188 102.589844 90.835938 102.558594 90.996094 C 102.53125 91.101562 102.394531 91.859375 102.257812 92.683594 C 102.113281 93.503906 101.933594 94.46875 101.863281 94.820312 C 101.804688 95.171875 101.285156 98.007812 100.726562 101.121094 C 99.785156 106.335938 99.710938 106.804688 99.820312 107.019531 C 100.335938 108.003906 99.273438 109.0625 98.351562 108.5 C 98.042969 108.3125 97.8125 107.933594 97.8125 107.601562 C 97.8125 107.257812 98.058594 106.796875 98.316406 106.667969 C 98.539062 106.550781 98.554688 106.464844 99.589844 100.660156 C 100.171875 97.425781 100.71875 94.390625 100.804688 93.921875 C 101.242188 91.585938 101.316406 91.160156 101.367188 90.800781 C 101.421875 90.484375 101.566406 90.238281 102.242188 89.390625 C 102.695312 88.824219 103.105469 88.320312 103.164062 88.277344 C 103.214844 88.226562 104.140625 87.132812 105.207031 85.84375 C 106.285156 84.550781 107.285156 83.371094 107.429688 83.234375 L 107.703125 82.96875 L 108.832031 76.734375 C 109.449219 73.300781 110.183594 69.246094 110.457031 67.714844 C 110.738281 66.1875 110.953125 64.929688 110.945312 64.921875 C 110.886719 64.859375 109.40625 66.777344 109.347656 66.988281 C 109.3125 67.125 108.988281 68.90625 108.621094 70.929688 C 107.96875 74.554688 107.960938 74.625 108.097656 74.914062 C 108.304688 75.34375 108.285156 75.847656 108.0625 76.128906 C 107.6875 76.609375 107.121094 76.726562 106.644531 76.4375 C 105.996094 76.042969 105.933594 75.214844 106.507812 74.675781 C 106.722656 74.480469 106.773438 74.28125 107.234375 71.75 C 107.507812 70.265625 107.730469 68.980469 107.730469 68.914062 C 107.730469 68.84375 107.585938 68.957031 107.40625 69.160156 C 107.234375 69.375 106.910156 69.75 106.6875 70.007812 C 106.386719 70.359375 106.269531 70.582031 106.199219 70.90625 C 106.148438 71.152344 105.875 72.65625 105.582031 74.257812 C 105.292969 75.855469 104.839844 78.371094 104.566406 79.847656 C 104.140625 82.226562 104.097656 82.566406 104.199219 82.753906 C 104.695312 83.722656 103.625 84.78125 102.710938 84.21875 C 102.402344 84.03125 102.171875 83.652344 102.171875 83.320312 C 102.171875 82.96875 102.421875 82.515625 102.683594 82.378906 C 102.882812 82.277344 102.941406 82.175781 103.011719 81.761719 C 103.0625 81.488281 103.453125 79.285156 103.882812 76.863281 C 105.199219 69.425781 105.113281 69.851562 105.4375 69.554688 C 105.601562 69.410156 105.976562 68.988281 106.277344 68.613281 C 106.574219 68.238281 106.847656 67.914062 106.882812 67.886719 C 107.027344 67.777344 111.414062 62.476562 111.378906 62.449219 C 111.363281 62.433594 106.070312 62.421875 99.617188 62.433594 L 87.875 62.457031 L 88.902344 62.988281 L 89.921875 63.527344 L 91.914062 63.527344 C 93.605469 63.527344 93.914062 63.507812 94 63.398438 C 94.152344 63.183594 94.71875 63.03125 95.058594 63.109375 C 95.519531 63.210938 95.777344 63.519531 95.828125 64.03125 C 95.871094 64.535156 95.734375 64.808594 95.308594 65.066406 C 94.863281 65.339844 94.433594 65.277344 94 64.878906 C 93.84375 64.742188 93.707031 64.722656 93.058594 64.742188 L 92.296875 64.765625 L 93.167969 65.210938 L 94.03125 65.664062 L 98.660156 65.664062 C 103.207031 65.664062 103.277344 65.664062 103.582031 65.484375 C 104.15625 65.140625 104.867188 65.3125 105.140625 65.84375 C 105.507812 66.554688 104.960938 67.460938 104.164062 67.460938 C 103.890625 67.460938 103.386719 67.175781 103.316406 66.988281 C 103.277344 66.878906 102.632812 66.859375 98.402344 66.859375 L 93.535156 66.859375 L 93.09375 66.570312 C 92.84375 66.417969 91.542969 65.714844 90.203125 65.023438 C 86.132812 62.910156 85.695312 62.679688 85.585938 62.542969 C 85.492188 62.433594 84.378906 62.414062 76.0625 62.421875 L 66.648438 62.433594 L 67.671875 62.929688 L 68.699219 63.433594 L 73.835938 63.433594 C 78.925781 63.441406 78.984375 63.441406 79.097656 63.269531 C 79.265625 63.011719 79.8125 62.851562 80.183594 62.9375 C 80.644531 63.039062 80.898438 63.347656 80.953125 63.859375 C 80.996094 64.363281 80.855469 64.636719 80.429688 64.894531 C 80.0625 65.125 79.6875 65.109375 79.308594 64.851562 L 78.992188 64.636719 L 74.976562 64.65625 L 70.949219 64.679688 L 71.886719 65.167969 L 72.820312 65.664062 L 77.335938 65.664062 C 81.292969 65.664062 81.859375 65.648438 81.941406 65.535156 C 82.097656 65.320312 82.660156 65.167969 83.003906 65.246094 C 83.464844 65.347656 83.722656 65.65625 83.773438 66.167969 C 83.816406 66.671875 83.679688 66.945312 83.25 67.203125 C 82.816406 67.476562 82.234375 67.382812 81.910156 66.988281 C 81.804688 66.871094 81.335938 66.851562 77.171875 66.871094 L 72.546875 66.878906 L 70.28125 65.679688 C 67.628906 64.289062 65.996094 63.457031 64.664062 62.851562 L 63.699219 62.414062 L 60.671875 62.433594 L 57.636719 62.457031 L 60.621094 64.054688 L 63.59375 65.664062 L 64.253906 65.664062 C 64.75 65.664062 64.945312 65.628906 65.015625 65.535156 C 65.167969 65.320312 65.730469 65.167969 66.074219 65.246094 C 66.535156 65.347656 66.792969 65.65625 66.84375 66.167969 C 66.886719 66.671875 66.75 66.945312 66.324219 67.203125 C 65.886719 67.476562 65.304688 67.382812 64.980469 66.988281 C 64.894531 66.886719 64.714844 66.859375 64.089844 66.871094 C 63.492188 66.886719 63.246094 66.851562 63.011719 66.734375 C 62.175781 66.3125 55.660156 62.792969 55.386719 62.621094 C 55.207031 62.507812 55.042969 62.414062 55.027344 62.414062 C 55.003906 62.414062 54.941406 62.636719 54.890625 62.902344 C 54.839844 63.175781 54.78125 63.476562 54.761719 63.578125 C 54.730469 63.714844 55.183594 64.3125 56.644531 66.058594 C 57.96875 67.640625 58.585938 68.441406 58.617188 68.628906 C 58.671875 68.914062 58.558594 69.613281 57.753906 73.992188 L 57.277344 76.625 L 57.457031 76.820312 C 57.882812 77.285156 57.824219 77.949219 57.3125 78.402344 C 57.027344 78.652344 56.960938 78.675781 56.574219 78.632812 C 55.652344 78.550781 55.257812 77.53125 55.867188 76.804688 C 56.046875 76.582031 56.140625 76.1875 56.558594 73.863281 C 56.816406 72.382812 57.132812 70.664062 57.25 70.042969 L 57.464844 68.894531 L 57.140625 68.511719 C 56.5 67.742188 56.4375 67.671875 56.4375 67.757812 C 56.4375 67.800781 55.925781 70.65625 55.300781 74.101562 C 54.234375 80.054688 54.179688 80.371094 54.316406 80.523438 C 54.71875 80.96875 54.644531 81.644531 54.148438 82.078125 C 53.863281 82.328125 53.796875 82.355469 53.410156 82.3125 C 53.09375 82.285156 52.933594 82.21875 52.738281 82.019531 C 52.292969 81.574219 52.324219 80.753906 52.796875 80.386719 C 52.96875 80.25 53.105469 79.601562 54.15625 73.742188 C 54.804688 70.167969 55.359375 67.074219 55.402344 66.878906 C 55.472656 66.511719 55.457031 66.492188 54.984375 65.921875 C 54.609375 65.457031 54.496094 65.375 54.445312 65.484375 C 54.394531 65.59375 50.957031 84.515625 50.957031 84.679688 C 50.957031 84.703125 52.230469 84.730469 53.796875 84.730469 L 56.625 84.730469 L 60.269531 82.839844 C 62.269531 81.796875 64.03125 80.855469 64.183594 80.746094 L 64.457031 80.539062 L 76.667969 80.539062 L 76.863281 80.328125 C 77.105469 80.070312 77.617188 79.898438 77.917969 79.976562 C 78.25 80.054688 78.644531 80.4375 78.738281 80.761719 C 78.847656 81.183594 78.710938 81.59375 78.34375 81.910156 C 78.0625 82.15625 77.992188 82.183594 77.617188 82.148438 C 77.351562 82.121094 77.128906 82.039062 77.011719 81.917969 L 76.8125 81.738281 L 70.871094 81.738281 L 64.9375 81.746094 L 64.082031 82.207031 L 63.226562 82.679688 L 65.585938 82.679688 C 67.84375 82.679688 67.957031 82.671875 68.101562 82.507812 C 68.296875 82.292969 68.828125 82.121094 69.109375 82.199219 C 69.441406 82.277344 69.835938 82.660156 69.929688 82.984375 C 70.042969 83.40625 69.90625 83.816406 69.539062 84.132812 C 69.253906 84.378906 69.1875 84.40625 68.808594 84.371094 C 68.511719 84.335938 68.324219 84.261719 68.152344 84.097656 L 67.921875 83.875 L 60.875 83.875 L 60.082031 84.277344 L 59.292969 84.6875 L 67.546875 84.746094 L 75.789062 84.800781 L 76.070312 84.558594 C 76.566406 84.125 77.199219 84.140625 77.625 84.59375 C 78.0625 85.0625 78.011719 85.730469 77.488281 86.183594 C 77.207031 86.433594 77.136719 86.457031 76.761719 86.421875 C 76.480469 86.390625 76.273438 86.3125 76.128906 86.175781 L 75.90625 85.96875 L 65.9375 85.945312 L 55.960938 85.917969 L 56.34375 86.148438 C 56.558594 86.269531 56.941406 86.484375 57.199219 86.613281 L 57.667969 86.851562 L 62.046875 86.910156 L 66.425781 86.980469 L 66.722656 86.714844 C 67.246094 86.261719 67.871094 86.269531 68.304688 86.730469 C 68.742188 87.203125 68.691406 87.867188 68.167969 88.320312 C 67.886719 88.570312 67.820312 88.59375 67.441406 88.5625 C 67.175781 88.535156 66.953125 88.449219 66.828125 88.328125 C 66.640625 88.152344 66.605469 88.152344 63.441406 88.167969 L 60.25 88.191406 L 61.039062 88.613281 L 61.824219 89.023438 L 66.792969 89.015625 L 71.761719 88.996094 L 72.007812 88.792969 C 72.476562 88.398438 73.109375 88.433594 73.519531 88.867188 C 73.957031 89.339844 73.90625 90.003906 73.382812 90.460938 C 73.101562 90.707031 73.035156 90.734375 72.65625 90.699219 C 72.394531 90.671875 72.171875 90.585938 72.050781 90.46875 C 71.855469 90.289062 71.84375 90.289062 66.785156 90.289062 L 61.722656 90.289062 L 59.523438 89.167969 C 55.898438 87.3125 53.917969 86.261719 53.726562 86.089844 C 53.574219 85.945312 53.402344 85.925781 52.136719 85.925781 L 50.726562 85.925781 L 50.667969 86.191406 C 50.554688 86.757812 50.589844 86.808594 52.460938 89.058594 C 53.480469 90.269531 54.371094 91.347656 54.4375 91.449219 C 54.566406 91.648438 54.414062 92.648438 53.660156 96.570312 C 53.402344 97.921875 53.386719 98.128906 53.488281 98.25 C 53.863281 98.667969 53.78125 99.351562 53.292969 99.777344 C 53.011719 100.027344 52.941406 100.050781 52.558594 100.007812 C 51.554688 99.914062 51.199219 98.675781 51.984375 98.042969 C 52.207031 97.871094 52.242188 97.753906 52.445312 96.488281 C 52.574219 95.734375 52.8125 94.402344 52.976562 93.511719 L 53.285156 91.914062 L 53.070312 91.628906 C 52.597656 91.050781 52.335938 90.757812 52.308594 90.800781 C 52.285156 90.828125 51.832031 93.304688 51.28125 96.316406 C 50.308594 101.710938 50.300781 101.789062 50.460938 101.96875 C 50.871094 102.429688 50.804688 103.097656 50.300781 103.539062 C 50.015625 103.789062 49.949219 103.8125 49.5625 103.769531 C 48.617188 103.6875 48.238281 102.652344 48.890625 101.898438 C 49.121094 101.632812 49.179688 101.308594 50.222656 95.5625 L 51.308594 89.511719 L 50.8125 88.921875 C 50.539062 88.59375 50.308594 88.339844 50.300781 88.355469 C 50.273438 88.382812 46.941406 106.824219 46.941406 106.945312 C 46.941406 107.019531 47.445312 107.046875 48.957031 107.046875 L 50.976562 107.046875 L 52.316406 106.328125 C 53.054688 105.933594 55.105469 104.832031 56.890625 103.890625 L 60.132812 102.171875 L 68.1875 102.171875 C 76.144531 102.171875 76.242188 102.171875 76.394531 102 C 76.589844 101.789062 77.121094 101.617188 77.402344 101.695312 C 77.738281 101.769531 78.128906 102.15625 78.222656 102.480469 C 78.335938 102.898438 78.199219 103.308594 77.832031 103.625 C 77.546875 103.875 77.480469 103.898438 77.105469 103.867188 C 76.804688 103.832031 76.617188 103.753906 76.445312 103.59375 L 76.214844 103.371094 L 60.628906 103.371094 L 58.355469 104.566406 L 71.496094 104.566406 L 71.667969 104.351562 C 71.855469 104.105469 72.394531 103.925781 72.699219 104.003906 C 73.035156 104.078125 73.425781 104.464844 73.519531 104.789062 C 73.632812 105.207031 73.496094 105.617188 73.128906 105.933594 C 72.847656 106.183594 72.777344 106.207031 72.402344 106.175781 C 72.136719 106.148438 71.914062 106.0625 71.792969 105.941406 L 71.597656 105.761719 L 56.035156 105.761719 L 54.855469 106.378906 L 53.675781 107.003906 L 65.152344 107.027344 L 76.625 107.046875 L 76.914062 106.796875 C 77.421875 106.351562 78.054688 106.363281 78.480469 106.824219 C 78.917969 107.292969 78.863281 107.960938 78.34375 108.414062 C 78.0625 108.660156 77.992188 108.6875 77.617188 108.652344 C 77.351562 108.628906 77.128906 108.542969 77.011719 108.429688 L 76.8125 108.242188 L 63.160156 108.226562 C 55.652344 108.207031 49.503906 108.21875 49.503906 108.242188 C 49.503906 108.269531 49.921875 108.507812 50.429688 108.78125 L 51.351562 109.261719 L 56.617188 109.320312 L 61.886719 109.378906 L 62.148438 109.15625 C 62.644531 108.746094 63.269531 108.773438 63.6875 109.21875 C 64.125 109.6875 64.074219 110.355469 63.550781 110.808594 C 63.269531 111.054688 63.203125 111.082031 62.824219 111.046875 C 62.535156 111.011719 62.339844 110.9375 62.175781 110.789062 L 61.945312 110.570312 L 57.859375 110.527344 C 53.214844 110.484375 53.507812 110.414062 55.042969 111.183594 C 55.464844 111.390625 55.847656 111.621094 55.910156 111.695312 C 56.011719 111.816406 56.773438 111.835938 63.476562 111.835938 L 70.929688 111.835938 L 71.117188 111.578125 C 71.332031 111.296875 71.863281 111.097656 72.1875 111.183594 C 72.519531 111.261719 72.914062 111.644531 73.007812 111.972656 C 73.121094 112.390625 72.984375 112.800781 72.613281 113.117188 C 72.332031 113.363281 72.265625 113.390625 71.886719 113.355469 C 71.667969 113.332031 71.410156 113.253906 71.324219 113.167969 C 71.179688 113.039062 70.511719 113.03125 63.699219 113.03125 C 56.867188 113.03125 56.191406 113.023438 55.832031 112.886719 C 55.617188 112.808594 54.078125 112.03125 52.410156 111.167969 C 48.257812 109.003906 47.359375 108.523438 47.085938 108.3125 C 46.921875 108.183594 46.828125 108.148438 46.761719 108.21875 C 46.71875 108.261719 46.554688 108.960938 46.410156 109.773438 C 46.171875 111.140625 46.160156 111.253906 46.289062 111.398438 C 46.683594 111.835938 46.605469 112.507812 46.109375 112.945312 C 45.828125 113.195312 45.757812 113.21875 45.375 113.175781 C 45.058594 113.152344 44.894531 113.082031 44.699219 112.886719 C 44.253906 112.441406 44.289062 111.621094 44.769531 111.242188 C 44.90625 111.140625 44.988281 110.945312 45.050781 110.585938 C 45.101562 110.3125 45.742188 106.773438 46.46875 102.738281 C 47.203125 98.691406 47.785156 95.359375 47.777344 95.316406 C 47.75 95.246094 46.460938 96.742188 46.332031 96.984375 C 46.296875 97.042969 45.992188 98.632812 45.648438 100.53125 C 45.109375 103.507812 45.042969 104.003906 45.136719 104.164062 C 45.476562 104.703125 45.390625 105.257812 44.914062 105.679688 C 44.632812 105.925781 44.5625 105.953125 44.179688 105.910156 C 43.175781 105.816406 42.820312 104.574219 43.613281 103.941406 C 43.84375 103.761719 43.871094 103.652344 44.28125 101.402344 C 44.511719 100.113281 44.785156 98.546875 44.886719 97.941406 C 45 97.324219 45.125 96.710938 45.1875 96.570312 C 45.246094 96.425781 45.929688 95.554688 46.707031 94.632812 C 47.496094 93.699219 48.171875 92.871094 48.214844 92.785156 C 48.308594 92.613281 50.546875 80.300781 50.511719 80.191406 C 50.488281 80.121094 49.769531 80.953125 48.710938 82.269531 L 48.375 82.679688 L 48.554688 82.902344 C 48.65625 83.027344 48.734375 83.207031 48.734375 83.3125 C 48.734375 83.40625 48.519531 84.695312 48.257812 86.175781 C 47.847656 88.433594 47.785156 88.886719 47.878906 89.03125 C 48.214844 89.570312 48.128906 90.125 47.648438 90.542969 C 47.367188 90.792969 47.296875 90.816406 46.914062 90.773438 C 45.90625 90.679688 45.554688 89.433594 46.347656 88.808594 C 46.589844 88.621094 46.613281 88.527344 47.023438 86.269531 C 47.253906 84.976562 47.433594 83.917969 47.417969 83.902344 C 47.402344 83.882812 47.222656 84.070312 47.015625 84.320312 C 46.8125 84.558594 46.476562 84.945312 46.28125 85.167969 C 46.09375 85.390625 45.90625 85.679688 45.878906 85.816406 C 45.855469 85.945312 44.8125 91.707031 43.5625 98.617188 C 41.921875 107.695312 41.320312 111.203125 41.382812 111.277344 C 41.722656 111.6875 41.621094 112.363281 41.152344 112.773438 C 40.867188 113.023438 40.800781 113.046875 40.414062 113.003906 C 39.902344 112.960938 39.519531 112.628906 39.441406 112.160156 C 39.371094 111.695312 39.476562 111.40625 39.835938 111.066406 L 40.160156 110.765625 L 42.398438 98.324219 C 43.640625 91.484375 44.683594 85.707031 44.734375 85.484375 C 44.792969 85.183594 44.964844 84.894531 45.453125 84.285156 C 45.8125 83.851562 46.203125 83.371094 46.332031 83.234375 C 46.460938 83.089844 47.445312 81.917969 48.519531 80.625 C 49.597656 79.335938 50.589844 78.15625 50.734375 78.019531 C 50.984375 77.761719 51 77.703125 52.640625 68.65625 C 53.546875 63.644531 54.285156 59.480469 54.265625 59.398438 C 54.257812 59.292969 54.019531 59.523438 53.53125 60.113281 L 52.820312 60.988281 L 52.019531 65.390625 C 51.292969 69.367188 51.230469 69.8125 51.34375 69.9375 C 51.726562 70.367188 51.640625 71.050781 51.15625 71.476562 C 50.871094 71.726562 50.804688 71.75 50.417969 71.707031 C 50.101562 71.683594 49.941406 71.613281 49.742188 71.417969 C 49.289062 70.964844 49.332031 70.152344 49.828125 69.769531 C 50.027344 69.605469 50.085938 69.367188 50.625 66.375 C 50.949219 64.59375 51.207031 63.109375 51.1875 63.066406 C 51.179688 63.03125 50.992188 63.203125 50.785156 63.449219 C 50.574219 63.699219 50.238281 64.082031 50.050781 64.304688 C 49.742188 64.65625 49.683594 64.792969 49.5625 65.417969 C 49.496094 65.808594 48.863281 69.28125 48.171875 73.128906 C 47.078125 79.171875 46.921875 80.15625 47.015625 80.308594 C 47.359375 80.847656 47.273438 81.40625 46.792969 81.824219 C 46.511719 82.070312 46.445312 82.097656 46.058594 82.054688 C 45.058594 81.960938 44.699219 80.710938 45.496094 80.085938 C 45.734375 79.898438 45.742188 79.847656 47.109375 72.332031 C 47.863281 68.167969 48.519531 64.621094 48.5625 64.441406 C 48.640625 64.175781 49.878906 62.507812 50.238281 62.203125 C 50.292969 62.148438 51.214844 61.054688 52.292969 59.765625 C 53.359375 58.472656 54.359375 57.285156 54.515625 57.132812 C 54.738281 56.898438 54.796875 56.738281 54.890625 56.199219 C 54.941406 55.839844 55.011719 55.488281 55.035156 55.429688 C 55.070312 55.335938 54.453125 55.320312 51.675781 55.320312 L 48.265625 55.320312 Z M 43.109375 84.585938 "/>
<path style=" stroke:none;fill-rule:nonzero;fill:rgb(0%,0%,0%);fill-opacity:1;" d="M 145.394531 75.042969 C 145.359375 75.222656 145.296875 75.511719 145.265625 75.683594 C 145.222656 75.882812 145.230469 76.007812 145.28125 76.007812 C 145.339844 76.007812 150.90625 79.890625 151.644531 80.457031 C 151.824219 80.582031 151.804688 80.59375 151.242188 80.910156 L 150.660156 81.226562 L 147.839844 79.214844 C 145.308594 77.429688 145.007812 77.242188 144.964844 77.402344 C 144.792969 78.25 144.761719 78.523438 144.8125 78.574219 C 144.855469 78.609375 145.914062 79.335938 147.171875 80.199219 L 149.460938 81.761719 L 149.136719 81.941406 C 148.957031 82.046875 147.648438 82.765625 146.230469 83.535156 L 143.65625 84.9375 L 143.5625 85.40625 C 143.511719 85.664062 143.46875 85.917969 143.46875 85.980469 C 143.46875 86.039062 144.597656 85.464844 145.972656 84.714844 C 152.515625 81.121094 153.601562 80.539062 153.703125 80.582031 C 153.773438 80.601562 153.816406 80.558594 153.816406 80.472656 C 153.804688 80.378906 152.394531 79.378906 149.695312 77.546875 C 147.4375 76.019531 145.554688 74.761719 145.511719 74.742188 C 145.476562 74.726562 145.417969 74.863281 145.394531 75.042969 Z M 145.394531 75.042969 "/>
<path style=" stroke:none;fill-rule:nonzero;fill:rgb(0%,0%,0%);fill-opacity:1;" d="M 22.632812 77.789062 C 19.828125 79.328125 17.511719 80.644531 17.492188 80.710938 C 17.46875 80.78125 17.433594 80.960938 17.398438 81.105469 C 17.347656 81.371094 17.398438 81.34375 22.519531 78.761719 L 27.683594 76.144531 L 27.746094 75.683594 C 27.777344 75.429688 27.820312 75.164062 27.847656 75.09375 C 27.871094 75.035156 27.855469 74.984375 27.820312 74.984375 C 27.777344 74.992188 25.445312 76.25 22.632812 77.789062 Z M 22.632812 77.789062 "/>
<path style=" stroke:none;fill-rule:nonzero;fill:rgb(0%,0%,0%);fill-opacity:1;" d="M 22.1875 80.257812 C 19.417969 81.652344 17.132812 82.789062 17.125 82.796875 C 17.125 82.808594 17.089844 82.945312 17.058594 83.113281 L 16.996094 83.429688 L 21.09375 86.183594 C 23.339844 87.699219 25.222656 88.953125 25.273438 88.980469 C 25.402344 89.03125 25.625 87.644531 25.503906 87.5625 C 25.453125 87.535156 23.929688 86.585938 22.109375 85.457031 L 18.808594 83.414062 L 19.410156 83.082031 L 20.007812 82.746094 L 22.898438 84.542969 C 25.222656 85.988281 25.785156 86.304688 25.828125 86.191406 C 25.863281 86.117188 25.914062 85.859375 25.949219 85.621094 L 26.007812 85.175781 L 23.75 83.660156 C 22.511719 82.824219 21.46875 82.113281 21.433594 82.078125 C 21.402344 82.046875 22.675781 81.300781 24.273438 80.421875 C 25.933594 79.507812 27.199219 78.753906 27.222656 78.675781 C 27.316406 78.34375 27.378906 77.71875 27.308594 77.71875 C 27.265625 77.726562 24.964844 78.863281 22.1875 80.257812 Z M 22.1875 80.257812 "/>
<path style=" stroke:none;fill-rule:nonzero;fill:rgb(0%,0%,0%);fill-opacity:1;" d="M 148.34375 84.773438 C 143.265625 87.550781 143.167969 87.613281 143.117188 87.902344 C 142.972656 88.644531 142.964844 88.75 143.023438 88.75 C 143.109375 88.75 153.148438 83.285156 153.257812 83.183594 C 153.328125 83.113281 153.574219 81.976562 153.523438 81.941406 C 153.523438 81.933594 151.191406 83.207031 148.34375 84.773438 Z M 148.34375 84.773438 "/>
</g>
</svg>
