<?xml version="1.0" standalone="no"?>
<!DOCTYPE svg PUBLIC "-//W3C//DTD SVG 20010904//EN"
 "http://www.w3.org/TR/2001/REC-SVG-20010904/DTD/svg10.dtd">
<svg version="1.0" xmlns="http://www.w3.org/2000/svg"
 width="700.000000pt" height="700.000000pt" viewBox="0 0 700.000000 700.000000"
 preserveAspectRatio="xMidYMid meet">
<metadata>
Created by potrace 1.11, written by Peter Selinger 2001-2013
</metadata>
<g transform="translate(0.000000,700.000000) scale(0.100000,-0.100000)"
fill="#000000" stroke="none">
<path d="M1981 4731 c-5 -3 -12 -26 -16 -51 -9 -59 -4 -33 -80 -455 -36 -203
-68 -383 -71 -400 -2 -16 -13 -79 -24 -140 -11 -60 -22 -123 -24 -140 -3 -16
-28 -158 -56 -315 -84 -479 -99 -564 -105 -600 -3 -19 -13 -73 -21 -120 -9
-47 -18 -98 -21 -115 -2 -16 -6 -36 -8 -42 -6 -17 -71 -15 867 -17 l807 -1 5
30 c3 16 8 41 11 55 5 23 20 111 32 185 2 17 13 75 24 130 10 55 19 105 19
111 0 8 -144 12 -522 12 -288 0 -529 1 -536 1 -8 1 -11 10 -7 29 2 15 16 97
31 182 14 85 29 158 33 162 4 4 203 8 444 8 l437 1 5 22 c3 12 14 72 25 132
57 324 62 358 52 364 -6 4 -205 7 -442 6 l-430 0 5 25 c2 14 12 68 20 120 9
52 24 140 33 195 l17 100 874 3 873 2 -7 -42 c-8 -50 -73 -422 -80 -458 -3
-14 -8 -45 -11 -70 -3 -25 -8 -48 -10 -51 -1 -3 -6 -28 -9 -55 -4 -27 -9 -57
-11 -66 -3 -10 -7 -28 -9 -40 -37 -216 -68 -396 -71 -412 -6 -31 -82 -465
-110 -630 -3 -16 -7 -33 -10 -38 -7 -10 -16 -10 319 -12 318 -2 290 -8 302 68
3 21 15 91 26 155 11 64 22 127 24 141 3 14 25 140 50 280 24 140 47 271 50
290 3 19 10 55 15 80 5 25 18 97 29 160 11 63 23 131 26 150 3 19 20 114 36
210 17 96 32 186 35 200 3 14 10 51 15 83 l11 57 408 0 409 0 10 53 c22 112
81 445 81 458 0 12 -253 14 -1722 14 l-1723 0 -20 -100 c-11 -55 -20 -109 -20
-120 0 -43 23 -35 310 115 l90 47 365 -3 c240 -2 369 1 377 8 18 15 60 1 66
-21 9 -36 -32 -67 -66 -49 -9 5 -177 11 -371 14 -308 5 -358 3 -385 -10 -16
-9 -32 -19 -35 -24 -8 -13 165 -13 200 0 26 9 36 9 48 -1 40 -33 0 -95 -45
-71 -12 7 -85 13 -167 15 -129 3 -151 1 -184 -16 -21 -11 -38 -20 -38 -22 0
-1 206 -2 458 -2 l457 0 81 42 80 42 134 2 c79 1 141 6 152 13 24 15 52 -3 56
-37 4 -32 -28 -53 -58 -37 -32 17 -263 14 -299 -5 -17 -8 -31 -17 -31 -18 0
-1 93 -2 208 -2 l207 0 163 88 163 88 292 -2 c161 0 300 2 309 6 48 19 90 -21
62 -60 -13 -17 -19 -18 -57 -8 -26 7 -148 12 -317 12 -254 1 -278 -1 -310 -19
l-35 -19 116 -1 c70 0 119 4 126 11 6 6 21 9 34 7 19 -2 25 -10 27 -36 3 -26
-1 -34 -20 -41 -13 -5 -28 -5 -34 0 -7 5 -79 10 -160 10 -206 0 -199 1 -224
-19 -21 -17 -7 -18 379 -20 l401 -3 163 88 162 88 210 6 c116 3 220 9 231 13
16 6 25 2 37 -15 28 -39 -14 -85 -54 -61 -13 8 -81 12 -204 12 -158 0 -191 -3
-218 -17 -32 -18 -30 -18 133 -21 109 -2 178 1 202 9 44 14 68 1 68 -36 0 -35
-24 -50 -58 -36 -19 8 -106 12 -255 13 -202 0 -231 -1 -264 -18 l-38 -19 338
-3 c290 -2 341 0 361 13 29 19 54 10 62 -21 11 -42 -11 -56 -75 -48 -51 5 -62
3 -121 -29 -36 -19 -112 -58 -170 -87 l-105 -54 -205 -2 c-113 -1 -219 -5
-236 -9 -41 -9 -62 14 -45 51 10 23 16 25 44 20 18 -4 122 -8 231 -11 159 -3
205 -1 227 11 15 7 30 18 33 22 7 12 -246 7 -270 -5 -29 -16 -64 1 -64 30 0
35 23 51 57 41 16 -4 109 -9 208 -10 158 -1 184 1 215 18 l35 18 -140 1 c-77
0 -258 1 -402 1 -145 1 -265 -1 -268 -4 -5 -4 -19 -77 -50 -243 -17 -94 -19
-85 50 -168 104 -125 99 -108 77 -229 -10 -57 -16 -113 -12 -123 11 -30 0 -55
-26 -61 -45 -12 -69 30 -40 71 7 11 19 54 26 95 7 41 14 83 16 93 2 11 -4 30
-13 44 -20 30 -29 18 -39 -53 -3 -27 -8 -51 -9 -54 -11 -19 -46 -259 -42 -287
8 -45 -22 -79 -54 -63 -29 16 -34 38 -16 69 13 23 24 66 42 176 3 17 10 50 15
75 5 25 12 65 15 90 4 25 10 61 14 82 7 28 4 43 -10 64 -19 30 -24 26 -33 -31
-2 -16 -11 -68 -20 -115 -8 -47 -18 -101 -21 -120 -4 -19 -15 -80 -25 -135
-35 -191 -40 -162 45 -265 79 -94 87 -115 74 -180 -4 -19 -10 -55 -14 -80 -4
-25 -11 -64 -16 -88 -5 -23 -12 -59 -15 -80 -3 -20 -17 -98 -31 -172 -14 -74
-27 -166 -28 -203 -3 -76 -18 -104 -54 -92 -28 8 -37 47 -18 77 16 24 28 82
76 353 67 381 63 344 42 371 l-19 24 -12 -52 c-6 -29 -13 -69 -16 -88 -3 -19
-12 -64 -19 -99 -8 -40 -10 -74 -5 -93 7 -23 5 -33 -10 -48 -39 -39 -87 10
-59 62 7 12 14 25 14 28 1 3 5 23 9 45 4 22 10 51 12 65 3 14 11 60 19 104 19
99 19 140 0 156 -19 16 -20 14 -60 -215 -22 -123 -35 -193 -38 -210 -3 -11 -8
-40 -12 -65 -4 -25 -9 -54 -11 -65 -2 -11 -8 -45 -14 -75 -5 -30 -18 -107 -29
-170 -12 -63 -18 -123 -15 -132 13 -44 -37 -75 -69 -43 -17 17 -17 30 2 64 11
19 99 466 125 633 3 21 10 57 15 80 5 24 12 59 15 78 3 19 15 84 26 144 11 60
18 111 16 113 -2 2 -17 -12 -34 -33 -21 -25 -32 -52 -37 -88 -4 -28 -8 -58
-10 -66 -4 -16 -21 -107 -30 -155 -30 -169 -45 -256 -50 -285 -3 -19 -9 -44
-12 -55 -4 -11 -7 -49 -7 -84 -1 -49 -5 -66 -18 -75 -35 -22 -76 34 -50 67 12
15 21 54 57 267 6 30 23 127 29 156 2 12 7 38 10 58 3 20 10 55 16 78 5 24 10
49 10 56 0 23 -61 -56 -66 -85 -2 -15 -12 -66 -20 -113 -9 -47 -18 -94 -19
-105 -3 -20 -10 -59 -20 -105 -2 -14 -7 -38 -10 -55 -3 -16 -12 -70 -21 -120
-8 -49 -16 -109 -16 -133 0 -40 -17 -72 -39 -72 -5 0 -18 9 -29 20 -19 19 -18
47 3 61 7 5 40 159 62 294 3 17 12 64 20 105 7 41 21 118 30 170 18 106 1 78
213 335 59 71 64 82 77 153 22 124 26 145 31 177 3 17 7 37 9 45 2 8 6 31 9
50 3 19 8 46 10 60 18 94 56 309 56 315 0 9 -44 -45 -58 -70 -5 -11 -13 -36
-16 -55 -3 -19 -15 -85 -26 -147 -11 -61 -17 -124 -14 -141 5 -23 1 -33 -17
-45 -40 -29 -83 19 -54 60 16 23 62 243 51 243 -2 0 -16 -16 -30 -35 -18 -24
-31 -59 -41 -112 -8 -43 -16 -89 -19 -103 -3 -14 -12 -65 -21 -115 -8 -49 -18
-103 -21 -120 -4 -16 -7 -50 -8 -75 -1 -55 -10 -70 -41 -70 -38 0 -52 36 -28
69 11 14 22 42 26 61 3 19 8 44 10 55 3 11 7 41 11 66 4 25 9 57 11 70 3 13
14 73 25 133 11 61 20 113 20 117 0 4 56 75 124 158 68 83 126 154 129 158 3
4 -210 8 -474 8 -263 0 -479 -1 -479 -2 0 -2 18 -12 40 -23 30 -15 59 -20 124
-20 47 0 87 4 91 9 6 11 44 6 58 -8 13 -13 4 -52 -15 -65 -12 -7 -23 -6 -41 3
-13 7 -35 11 -48 9 -23 -3 -23 -4 8 -21 28 -15 60 -17 218 -17 102 1 198 5
214 10 23 6 33 4 46 -10 34 -38 -10 -84 -57 -59 -15 8 -83 12 -213 12 -188 0
-191 0 -240 27 -27 15 -104 56 -170 91 l-120 63 -377 1 c-208 0 -378 -2 -378
-5 0 -3 19 -13 43 -21 34 -13 82 -16 242 -15 110 1 208 6 217 10 9 4 27 6 40
4 18 -2 24 -10 26 -35 3 -27 -1 -33 -20 -38 -13 -3 -35 -2 -48 2 -19 7 -262 9
-325 4 -5 -1 9 -10 30 -21 36 -19 58 -20 212 -19 95 0 188 6 207 11 27 9 39 8
51 -2 40 -33 -11 -100 -52 -68 -7 6 -98 10 -205 10 -106 1 -197 4 -203 9 -5 4
-84 45 -175 90 l-165 84 -115 0 c-63 1 -119 -1 -123 -3 -14 -7 226 -132 253
-132 14 0 31 5 37 11 17 17 60 2 67 -23 9 -35 -26 -61 -62 -46 -15 6 -38 10
-51 9 -14 0 -98 38 -194 90 -168 90 -186 95 -187 54 0 -6 36 -56 80 -112 l81
-103 -21 -122 c-11 -68 -24 -142 -29 -165 -6 -31 -5 -46 4 -53 28 -23 -16 -79
-51 -66 -20 8 -34 48 -22 63 11 14 40 154 64 303 4 28 1 40 -15 54 -16 15 -21
16 -25 5 -14 -49 -80 -454 -80 -499 -1 -30 -5 -61 -9 -67 -13 -20 -44 -15 -61
8 -13 20 -13 25 0 51 12 23 41 161 70 328 2 14 7 36 9 50 3 14 8 39 11 55 2
17 9 54 14 84 8 45 7 59 -7 80 -15 24 -17 24 -24 6 -10 -23 -139 -729 -139
-757 0 -16 10 -18 114 -18 126 0 92 -12 335 117 l104 56 246 0 c197 0 250 3
268 14 17 11 27 12 42 3 26 -13 29 -65 5 -74 -22 -8 -54 -8 -54 2 0 5 -397 9
-486 3 -12 0 -32 -9 -44 -19 -21 -17 -19 -17 67 -16 48 0 100 6 114 12 37 15
62 -4 57 -43 -2 -24 -8 -31 -31 -33 -16 -2 -34 1 -40 6 -7 5 -75 10 -152 9
-116 0 -146 -3 -175 -18 -35 -18 -32 -18 270 -20 350 -1 372 -1 385 12 19 18
55 10 67 -16 10 -22 9 -29 -8 -46 -17 -17 -25 -18 -49 -9 -19 7 -163 11 -419
11 -215 1 -395 0 -401 -1 -5 -1 6 -9 27 -19 51 -24 377 -30 409 -7 41 28 83
-16 55 -59 -14 -21 -20 -23 -48 -14 -18 5 -89 9 -158 8 l-125 -1 37 -17 c31
-14 66 -17 236 -15 110 1 207 6 217 11 26 15 54 4 61 -23 10 -39 -13 -57 -61
-49 -22 5 -128 9 -235 9 l-195 2 -170 87 c-140 71 -180 87 -224 90 -38 2 -55
-1 -58 -10 -5 -13 28 -68 65 -109 9 -10 35 -40 56 -66 l38 -47 -12 -73 c-7
-40 -14 -82 -17 -93 -2 -11 -6 -51 -8 -89 -4 -75 -11 -89 -45 -84 -36 5 -48
32 -28 66 9 15 27 81 39 146 l22 118 -21 20 -20 20 -10 -48 c-23 -106 -64
-351 -64 -379 -1 -16 2 -40 5 -53 8 -31 -32 -58 -62 -42 -22 11 -28 49 -12 66
8 7 30 112 67 314 2 14 11 62 20 108 14 80 14 84 -5 109 -24 29 -24 30 -41
-77 -14 -87 -16 -98 -30 -165 -5 -27 -12 -66 -15 -85 -6 -41 -40 -223 -60
-329 -8 -41 -12 -77 -10 -79 3 -3 41 -5 85 -4 75 1 87 5 163 45 45 24 129 69
187 99 l105 56 326 0 c229 -1 332 3 347 11 46 25 86 -36 46 -70 -12 -10 -22
-10 -48 -1 -22 8 -130 12 -343 12 l-310 0 -49 -25 -49 -25 272 0 c170 0 274 4
278 10 9 14 48 13 63 -2 18 -18 15 -42 -7 -62 -15 -14 -24 -15 -40 -7 -13 7
-130 11 -343 11 l-323 -1 -40 -24 -40 -25 310 -1 c171 0 378 0 460 0 98 -1
161 4 182 12 37 15 63 1 63 -36 0 -34 -25 -51 -56 -36 -18 8 -183 11 -582 11
l-557 -1 42 -22 c40 -21 53 -22 255 -20 117 1 227 4 245 8 29 6 34 4 45 -20
11 -24 10 -29 -10 -45 -20 -16 -62 -17 -62 -1 0 3 -72 7 -160 7 -88 1 -160 -2
-160 -6 0 -4 18 -17 40 -28 36 -18 64 -19 345 -21 185 -1 305 2 305 7 0 12 37
22 56 15 19 -7 27 -39 14 -63 -10 -18 -17 -20 -58 -15 -26 4 -180 7 -342 9
l-295 2 -150 78 c-82 43 -165 87 -183 98 -38 23 -39 23 -46 -17 -3 -17 -8 -42
-11 -57 -4 -15 -2 -35 3 -44 13 -23 -6 -64 -29 -64 -34 0 -49 12 -49 39 0 15
5 32 10 37 9 9 46 189 75 364 3 19 8 42 10 50 2 8 7 35 10 60 4 25 10 63 15
85 5 22 10 51 10 64 0 23 -1 23 -19 7 -11 -10 -24 -29 -30 -44 -20 -49 -57
-279 -50 -306 10 -37 -20 -69 -53 -57 -28 10 -34 42 -15 73 8 13 18 39 21 58
3 19 8 46 11 60 6 27 10 52 20 120 9 58 16 70 85 157 49 61 59 81 69 135 20
112 21 122 37 203 8 44 17 96 20 115 3 19 9 53 14 75 5 22 7 41 5 43 -4 4 -66
-62 -78 -83 -4 -8 -3 -16 2 -19 8 -5 6 -23 -14 -126 -4 -19 -8 -65 -10 -103
-3 -77 -14 -96 -50 -89 -32 6 -42 42 -22 74 16 24 19 36 43 168 l7 35 -32 -34
c-17 -18 -31 -35 -31 -37 0 -3 -6 -37 -14 -77 -14 -70 -89 -486 -101 -557 -3
-19 -8 -46 -10 -60 -11 -53 -16 -78 -30 -160 -8 -47 -18 -96 -21 -110 -3 -14
-6 -49 -6 -78 0 -75 -29 -101 -68 -62 -20 20 -18 41 5 70 7 8 18 49 25 90 7
41 14 84 16 95 10 52 34 183 39 210 2 17 9 55 15 85 6 30 13 71 16 90 2 19 9
55 14 80 5 25 23 124 40 220 35 198 25 176 178 359 110 130 117 146 137 281 4
25 13 75 21 113 7 37 16 85 19 107 2 21 9 58 14 82 6 24 12 57 15 73 3 17 12
71 20 120 9 50 16 94 16 99 0 12 -59 -56 -61 -69 0 -5 -3 -21 -5 -35 -46 -251
-54 -307 -49 -332 13 -56 -50 -86 -76 -36 -8 14 -7 25 4 42 14 21 30 86 43
171 3 22 9 58 14 80 l9 40 -34 -38 c-33 -38 -36 -49 -61 -202 -4 -26 -29 -165
-40 -220 -2 -10 -6 -35 -9 -55 -3 -19 -11 -69 -19 -111 -7 -41 -11 -89 -9
-105 3 -19 -1 -35 -11 -43 -35 -29 -90 26 -60 60 12 14 36 116 58 249 5 31 26
139 41 210 2 13 7 42 10 65 4 22 10 55 15 73 4 17 6 32 4 32 -3 0 2 13 11 29
13 27 38 57 185 230 25 30 50 63 57 75 14 24 17 55 6 57 -29 5 -254 4 -262 0z"/>
<path d="M5950 3912 c0 -23 10 -35 63 -69 141 -93 197 -139 185 -151 -7 -7
-17 -12 -24 -12 -7 0 -60 34 -119 75 -59 41 -111 75 -116 75 -5 0 -9 -11 -9
-24 0 -19 19 -37 91 -86 106 -73 109 -59 -40 -141 -87 -47 -120 -76 -104 -92
4 -5 95 41 208 105 28 15 87 47 131 70 l81 42 -26 21 c-31 26 -267 187 -299
204 -20 11 -22 9 -22 -17z"/>
<path d="M1060 3889 c-265 -142 -373 -208 -342 -209 22 0 413 201 419 215 12
33 -6 32 -77 -6z"/>
<path d="M908 3714 c-116 -58 -208 -110 -208 -118 0 -13 328 -242 335 -234 3
2 6 15 7 28 3 21 -15 35 -133 109 -126 80 -135 87 -117 100 23 16 32 12 138
-55 36 -23 79 -49 96 -57 30 -16 32 -15 37 4 4 16 -12 31 -84 80 -50 33 -89
65 -87 71 4 10 31 26 170 105 40 22 69 56 56 68 -1 1 -96 -44 -210 -101z"/>
<path d="M6195 3598 c-38 -22 -113 -62 -165 -90 -126 -67 -173 -99 -176 -120
-1 -10 0 -18 2 -18 4 0 102 52 189 100 28 15 86 47 130 70 98 53 105 58 105
81 0 25 -3 24 -85 -23z"/>
</g>
</svg>
