<?xml version="1.0" encoding="UTF-8"?>
<svg xmlns="http://www.w3.org/2000/svg" xmlns:xlink="http://www.w3.org/1999/xlink" width="160pt" height="160pt" viewBox="0 0 160 160" version="1.1">
<g id="surface1">
<path style=" stroke:none;fill-rule:nonzero;fill:rgb(0%,0%,0%);fill-opacity:1;" d="M 51.511719 51.617188 C 51.511719 51.632812 51.496094 51.710938 51.488281 51.800781 C 51.335938 52.894531 51.246094 53.207031 51.007812 53.457031 C 50.863281 53.601562 49.929688 54.710938 48.929688 55.921875 C 47.921875 57.128906 47.054688 58.152344 47.007812 58.199219 C 46.671875 58.488281 45.511719 60.046875 45.441406 60.296875 C 45.398438 60.464844 44.785156 63.785156 44.078125 67.679688 C 42.800781 74.710938 42.792969 74.761719 42.566406 74.9375 C 41.824219 75.519531 42.160156 76.6875 43.097656 76.777344 C 43.457031 76.816406 43.519531 76.792969 43.785156 76.558594 C 44.230469 76.167969 44.3125 75.648438 43.992188 75.144531 C 43.902344 75 44.046875 74.078125 45.070312 68.425781 C 45.71875 64.824219 46.3125 61.574219 46.375 61.207031 C 46.488281 60.625 46.542969 60.496094 46.832031 60.167969 C 47.007812 59.960938 47.320312 59.601562 47.519531 59.367188 C 47.710938 59.136719 47.886719 58.976562 47.894531 59.007812 C 47.910156 59.046875 47.671875 60.441406 47.367188 62.105469 C 46.863281 64.902344 46.808594 65.128906 46.625 65.28125 C 46.160156 65.640625 46.121094 66.398438 46.542969 66.824219 C 46.726562 67.007812 46.878906 67.070312 47.175781 67.097656 C 47.535156 67.136719 47.601562 67.113281 47.863281 66.878906 C 48.320312 66.480469 48.398438 65.839844 48.039062 65.441406 C 47.9375 65.320312 47.992188 64.902344 48.671875 61.183594 L 49.425781 57.0625 L 50.089844 56.246094 C 50.542969 55.695312 50.769531 55.480469 50.777344 55.574219 C 50.792969 55.65625 50.105469 59.550781 49.257812 64.238281 C 47.71875 72.703125 47.703125 72.761719 47.472656 73 C 47.335938 73.128906 46.40625 74.230469 45.398438 75.441406 C 44.390625 76.648438 43.472656 77.742188 43.351562 77.878906 C 43.230469 78.007812 42.863281 78.457031 42.527344 78.863281 C 42.070312 79.433594 41.910156 79.703125 41.855469 79.984375 C 41.808594 80.191406 40.832031 85.601562 39.671875 92 L 37.574219 103.640625 L 37.273438 103.921875 C 36.9375 104.238281 36.839844 104.511719 36.902344 104.945312 C 36.976562 105.382812 37.335938 105.695312 37.816406 105.734375 C 38.175781 105.777344 38.238281 105.753906 38.503906 105.519531 C 38.945312 105.136719 39.039062 104.503906 38.71875 104.121094 C 38.664062 104.046875 39.222656 100.769531 40.761719 92.273438 C 41.929688 85.808594 42.902344 80.414062 42.929688 80.296875 C 42.953125 80.167969 43.128906 79.894531 43.304688 79.6875 C 43.488281 79.480469 43.800781 79.121094 43.992188 78.894531 C 44.183594 78.664062 44.351562 78.488281 44.367188 78.503906 C 44.382812 78.519531 44.214844 79.511719 44 80.71875 C 43.617188 82.832031 43.59375 82.921875 43.367188 83.097656 C 42.625 83.679688 42.953125 84.847656 43.894531 84.9375 C 44.257812 84.976562 44.320312 84.953125 44.585938 84.71875 C 45.03125 84.328125 45.113281 83.808594 44.800781 83.304688 C 44.710938 83.167969 44.769531 82.742188 45.152344 80.632812 C 45.398438 79.246094 45.601562 77.992188 45.601562 77.839844 C 45.609375 77.3125 46.023438 76.449219 46.648438 75.679688 C 46.976562 75.28125 47.246094 74.984375 47.265625 75.023438 C 47.296875 75.136719 45.199219 86.648438 45.113281 86.816406 C 45.070312 86.894531 44.441406 87.671875 43.703125 88.542969 C 42.976562 89.40625 42.335938 90.222656 42.28125 90.359375 C 42.222656 90.488281 42.105469 91.0625 42 91.640625 C 41.902344 92.207031 41.648438 93.671875 41.433594 94.878906 C 41.046875 96.984375 41.023438 97.089844 40.808594 97.257812 C 40.0625 97.847656 40.398438 99.007812 41.335938 99.097656 C 41.695312 99.136719 41.761719 99.113281 42.023438 98.878906 C 42.472656 98.488281 42.550781 97.96875 42.230469 97.464844 C 42.144531 97.3125 42.207031 96.847656 42.710938 94.0625 C 43.03125 92.289062 43.320312 90.800781 43.351562 90.742188 C 43.472656 90.519531 44.679688 89.121094 44.703125 89.183594 C 44.710938 89.222656 44.167969 92.34375 43.480469 96.128906 C 42.800781 99.902344 42.199219 103.214844 42.152344 103.472656 C 42.097656 103.808594 42.015625 103.992188 41.886719 104.089844 C 41.441406 104.441406 41.40625 105.207031 41.824219 105.625 C 42.007812 105.808594 42.160156 105.871094 42.457031 105.894531 C 42.816406 105.9375 42.878906 105.910156 43.144531 105.679688 C 43.609375 105.273438 43.679688 104.640625 43.3125 104.230469 C 43.191406 104.097656 43.199219 103.992188 43.425781 102.710938 C 43.558594 101.953125 43.710938 101.296875 43.753906 101.257812 C 43.816406 101.191406 43.902344 101.222656 44.054688 101.34375 C 44.3125 101.542969 45.152344 101.992188 49.039062 104.015625 C 50.601562 104.824219 52.039062 105.550781 52.238281 105.625 C 52.574219 105.753906 53.207031 105.761719 59.601562 105.761719 C 65.976562 105.761719 66.601562 105.769531 66.734375 105.886719 C 66.816406 105.96875 67.054688 106.039062 67.265625 106.0625 C 67.617188 106.097656 67.679688 106.070312 67.945312 105.839844 C 68.289062 105.542969 68.414062 105.160156 68.3125 104.769531 C 68.222656 104.464844 67.855469 104.105469 67.542969 104.03125 C 67.238281 103.953125 66.742188 104.136719 66.542969 104.398438 L 66.367188 104.640625 L 59.390625 104.640625 C 53.121094 104.640625 52.40625 104.625 52.3125 104.511719 C 52.257812 104.441406 51.894531 104.222656 51.503906 104.03125 C 50.0625 103.3125 49.792969 103.375 54.136719 103.414062 L 57.960938 103.457031 L 58.175781 103.664062 C 58.328125 103.800781 58.511719 103.871094 58.785156 103.902344 C 59.136719 103.9375 59.199219 103.910156 59.464844 103.679688 C 60.527344 102.753906 59.238281 101.222656 58.152344 102.136719 L 57.902344 102.34375 L 52.976562 102.289062 L 48.046875 102.230469 L 47.183594 101.785156 C 46.710938 101.527344 46.320312 101.304688 46.320312 101.28125 C 46.320312 101.257812 52.070312 101.246094 59.097656 101.265625 L 71.871094 101.28125 L 72.054688 101.457031 C 72.167969 101.558594 72.375 101.640625 72.625 101.664062 C 72.976562 101.695312 73.039062 101.671875 73.304688 101.441406 C 73.792969 101.015625 73.839844 100.390625 73.433594 99.953125 C 73.03125 99.519531 72.441406 99.511719 71.96875 99.929688 L 71.695312 100.160156 L 60.960938 100.144531 L 50.222656 100.121094 L 51.328125 99.542969 L 52.433594 98.960938 L 66.992188 98.960938 L 67.175781 99.128906 C 67.289062 99.238281 67.496094 99.320312 67.742188 99.34375 C 68.097656 99.375 68.160156 99.351562 68.425781 99.121094 C 68.769531 98.824219 68.894531 98.441406 68.792969 98.046875 C 68.703125 97.742188 68.335938 97.382812 68.023438 97.3125 C 67.734375 97.238281 67.230469 97.40625 67.054688 97.640625 L 66.894531 97.839844 L 54.601562 97.839844 L 55.664062 97.28125 L 56.726562 96.71875 L 71.3125 96.71875 L 71.527344 96.929688 C 71.6875 97.078125 71.863281 97.152344 72.144531 97.183594 C 72.496094 97.214844 72.558594 97.191406 72.824219 96.960938 C 73.167969 96.664062 73.296875 96.28125 73.191406 95.886719 C 73.105469 95.585938 72.734375 95.222656 72.425781 95.152344 C 72.160156 95.078125 71.664062 95.238281 71.480469 95.441406 C 71.335938 95.601562 71.246094 95.601562 63.800781 95.601562 L 56.265625 95.601562 L 53.230469 97.207031 C 51.558594 98.089844 49.640625 99.121094 48.953125 99.488281 L 47.695312 100.160156 L 45.808594 100.160156 C 44.390625 100.160156 43.921875 100.136719 43.921875 100.0625 C 43.921875 99.953125 47.039062 82.695312 47.0625 82.671875 C 47.070312 82.65625 47.289062 82.894531 47.542969 83.199219 L 48.007812 83.753906 L 46.992188 89.414062 C 46.015625 94.792969 45.960938 95.097656 45.742188 95.34375 C 45.136719 96.046875 45.488281 97.015625 46.375 97.097656 C 46.734375 97.136719 46.800781 97.113281 47.0625 96.878906 C 47.535156 96.464844 47.601562 95.839844 47.214844 95.40625 C 47.0625 95.238281 47.070312 95.167969 47.984375 90.121094 C 48.496094 87.304688 48.921875 84.984375 48.945312 84.960938 C 48.96875 84.921875 49.214844 85.191406 49.65625 85.734375 L 49.855469 86 L 49.566406 87.496094 C 49.414062 88.328125 49.191406 89.574219 49.070312 90.28125 C 48.878906 91.464844 48.847656 91.574219 48.640625 91.734375 C 47.902344 92.328125 48.238281 93.488281 49.175781 93.574219 C 49.535156 93.617188 49.601562 93.59375 49.863281 93.359375 C 50.320312 92.960938 50.398438 92.320312 50.046875 91.929688 C 49.953125 91.816406 49.96875 91.625 50.207031 90.359375 C 50.910156 86.6875 51.054688 85.753906 50.9375 85.566406 C 50.871094 85.472656 50.039062 84.464844 49.089844 83.328125 C 47.335938 81.222656 47.304688 81.175781 47.40625 80.648438 L 47.464844 80.398438 L 48.785156 80.398438 C 49.96875 80.398438 50.128906 80.414062 50.273438 80.550781 C 50.449219 80.710938 52.304688 81.695312 55.695312 83.433594 L 57.753906 84.480469 L 62.488281 84.480469 C 67.222656 84.480469 67.230469 84.480469 67.414062 84.648438 C 67.527344 84.761719 67.734375 84.839844 67.984375 84.863281 C 68.335938 84.894531 68.398438 84.871094 68.664062 84.640625 C 69.710938 83.71875 68.441406 82.183594 67.375 83.078125 L 67.144531 83.273438 L 62.496094 83.289062 L 57.847656 83.296875 L 57.113281 82.910156 L 56.375 82.519531 L 59.359375 82.496094 C 62.320312 82.480469 62.351562 82.480469 62.527344 82.648438 C 62.648438 82.761719 62.855469 82.839844 63.105469 82.863281 C 63.457031 82.894531 63.519531 82.871094 63.785156 82.640625 C 64.273438 82.214844 64.320312 81.59375 63.910156 81.152344 C 63.503906 80.71875 62.921875 80.710938 62.433594 81.136719 L 62.152344 81.382812 L 58.054688 81.320312 L 53.960938 81.265625 L 53.519531 81.039062 C 53.28125 80.921875 52.921875 80.71875 52.71875 80.609375 L 52.359375 80.390625 L 61.695312 80.414062 L 71.023438 80.441406 L 71.230469 80.632812 C 71.367188 80.761719 71.558594 80.832031 71.824219 80.863281 C 72.175781 80.894531 72.238281 80.871094 72.503906 80.640625 C 72.992188 80.214844 73.039062 79.59375 72.632812 79.152344 C 72.230469 78.726562 71.640625 78.710938 71.175781 79.121094 L 70.910156 79.34375 L 63.199219 79.296875 L 55.480469 79.238281 L 56.214844 78.855469 L 56.960938 78.480469 L 63.550781 78.480469 L 63.769531 78.6875 C 63.929688 78.839844 64.105469 78.910156 64.382812 78.945312 C 64.734375 78.976562 64.800781 78.953125 65.0625 78.71875 C 65.40625 78.425781 65.535156 78.039062 65.433594 77.648438 C 65.34375 77.34375 64.976562 76.984375 64.664062 76.910156 C 64.398438 76.839844 63.902344 77 63.71875 77.199219 C 63.585938 77.351562 63.480469 77.359375 61.367188 77.359375 L 59.160156 77.359375 L 59.960938 76.921875 L 60.761719 76.488281 L 66.3125 76.480469 L 71.871094 76.480469 L 72.054688 76.648438 C 72.167969 76.761719 72.375 76.839844 72.625 76.863281 C 72.976562 76.894531 73.039062 76.871094 73.304688 76.640625 C 73.648438 76.34375 73.777344 75.960938 73.671875 75.566406 C 73.585938 75.265625 73.214844 74.902344 72.902344 74.832031 C 72.625 74.761719 72.144531 74.921875 71.921875 75.160156 L 71.734375 75.359375 L 60.3125 75.359375 L 60.054688 75.550781 C 59.910156 75.65625 58.265625 76.535156 56.390625 77.511719 L 52.984375 79.28125 L 50.335938 79.28125 C 48.871094 79.28125 47.679688 79.257812 47.679688 79.230469 C 47.679688 79.078125 50.894531 61.375 50.945312 61.273438 C 50.992188 61.167969 51.097656 61.246094 51.449219 61.679688 C 51.886719 62.214844 51.902344 62.230469 51.839844 62.574219 C 51.800781 62.761719 51.28125 65.65625 50.671875 69 C 49.6875 74.480469 49.558594 75.089844 49.398438 75.214844 C 48.960938 75.558594 48.929688 76.328125 49.34375 76.742188 C 49.527344 76.929688 49.679688 76.992188 49.976562 77.015625 C 50.335938 77.054688 50.398438 77.03125 50.664062 76.800781 C 51.128906 76.390625 51.199219 75.761719 50.824219 75.34375 C 50.695312 75.199219 50.742188 74.902344 51.742188 69.335938 C 52.328125 66.113281 52.808594 63.441406 52.808594 63.398438 C 52.808594 63.320312 52.863281 63.382812 53.464844 64.105469 L 53.769531 64.464844 L 53.566406 65.535156 C 53.457031 66.121094 53.160156 67.726562 52.921875 69.113281 C 52.527344 71.289062 52.441406 71.65625 52.273438 71.863281 C 51.703125 72.542969 52.070312 73.496094 52.9375 73.574219 C 53.296875 73.617188 53.359375 73.59375 53.625 73.359375 C 54.105469 72.9375 54.160156 72.3125 53.761719 71.878906 L 53.59375 71.695312 L 54.039062 69.230469 C 54.792969 65.136719 54.894531 64.480469 54.847656 64.214844 C 54.816406 64.039062 54.238281 63.289062 53 61.808594 C 51.632812 60.175781 51.207031 59.617188 51.238281 59.488281 C 51.257812 59.390625 51.3125 59.113281 51.359375 58.855469 C 51.40625 58.609375 51.464844 58.398438 51.488281 58.398438 C 51.503906 58.398438 51.65625 58.488281 51.824219 58.59375 C 52.078125 58.753906 58.175781 62.046875 58.960938 62.441406 C 59.175781 62.550781 59.40625 62.585938 59.96875 62.566406 C 60.550781 62.558594 60.71875 62.585938 60.800781 62.679688 C 61.375 63.375 62.558594 62.945312 62.558594 62.046875 C 62.558594 61.65625 62.433594 61.390625 62.152344 61.183594 C 61.753906 60.886719 60.878906 61.054688 60.761719 61.449219 C 60.703125 61.609375 60.671875 61.617188 60.105469 61.566406 C 59.558594 61.519531 59.425781 61.464844 58.726562 61.054688 C 58.296875 60.808594 57.046875 60.113281 55.945312 59.519531 L 53.929688 58.441406 L 56.769531 58.414062 L 59.601562 58.398438 L 60.503906 58.808594 C 61.753906 59.375 63.28125 60.152344 65.761719 61.457031 L 67.878906 62.574219 L 72.207031 62.566406 C 76.105469 62.550781 76.542969 62.566406 76.640625 62.679688 C 76.945312 63.046875 77.488281 63.136719 77.894531 62.878906 C 78.296875 62.640625 78.425781 62.382812 78.382812 61.910156 C 78.335938 61.433594 78.097656 61.144531 77.664062 61.046875 C 77.34375 60.976562 76.816406 61.121094 76.671875 61.320312 C 76.59375 61.425781 76.0625 61.441406 72.359375 61.441406 L 68.136719 61.441406 L 67.265625 60.976562 L 66.382812 60.519531 L 70.152344 60.496094 L 73.910156 60.480469 L 74.207031 60.679688 C 74.558594 60.921875 74.910156 60.9375 75.257812 60.71875 C 75.65625 60.480469 75.785156 60.222656 75.742188 59.753906 C 75.695312 59.273438 75.457031 58.984375 75.023438 58.886719 C 74.679688 58.808594 74.167969 58.960938 74.007812 59.199219 C 73.902344 59.359375 73.847656 59.359375 69.089844 59.351562 L 64.28125 59.351562 L 63.320312 58.878906 L 62.359375 58.414062 L 71.167969 58.40625 C 78.953125 58.398438 79.992188 58.414062 80.078125 58.519531 C 80.183594 58.648438 80.59375 58.863281 84.398438 60.839844 C 85.65625 61.488281 86.871094 62.144531 87.105469 62.289062 L 87.519531 62.558594 L 92.070312 62.558594 C 96.03125 62.558594 96.632812 62.574219 96.671875 62.679688 C 96.734375 62.855469 97.207031 63.121094 97.464844 63.121094 C 98.207031 63.121094 98.71875 62.273438 98.375 61.609375 C 98.121094 61.113281 97.457031 60.953125 96.921875 61.273438 C 96.632812 61.441406 96.566406 61.441406 92.3125 61.441406 L 87.984375 61.441406 L 87.175781 61.015625 L 86.359375 60.601562 L 87.070312 60.574219 C 87.679688 60.558594 87.808594 60.574219 87.953125 60.703125 C 88.359375 61.078125 88.761719 61.136719 89.175781 60.878906 C 89.574219 60.640625 89.703125 60.382812 89.664062 59.910156 C 89.617188 59.433594 89.375 59.144531 88.945312 59.046875 C 88.625 58.976562 88.097656 59.121094 87.953125 59.320312 C 87.871094 59.425781 87.585938 59.441406 86 59.441406 L 84.136719 59.441406 L 83.183594 58.9375 L 82.222656 58.441406 L 93.207031 58.414062 C 99.246094 58.40625 104.199219 58.414062 104.214844 58.433594 C 104.246094 58.457031 100.144531 63.414062 100.007812 63.519531 C 99.976562 63.542969 99.71875 63.847656 99.441406 64.199219 C 99.160156 64.550781 98.808594 64.945312 98.65625 65.078125 C 98.351562 65.359375 98.433594 64.960938 97.199219 71.921875 C 96.800781 74.183594 96.433594 76.246094 96.382812 76.503906 C 96.320312 76.886719 96.265625 76.984375 96.078125 77.078125 C 95.832031 77.207031 95.601562 77.632812 95.601562 77.960938 C 95.601562 78.273438 95.816406 78.625 96.105469 78.800781 C 96.960938 79.328125 97.960938 78.335938 97.496094 77.433594 C 97.398438 77.257812 97.441406 76.9375 97.839844 74.710938 C 98.097656 73.328125 98.519531 70.976562 98.792969 69.480469 C 99.0625 67.984375 99.320312 66.574219 99.367188 66.34375 C 99.433594 66.039062 99.542969 65.832031 99.824219 65.503906 C 100.03125 65.265625 100.335938 64.910156 100.496094 64.710938 C 100.664062 64.519531 100.800781 64.414062 100.800781 64.480469 C 100.800781 64.542969 100.59375 65.742188 100.335938 67.136719 C 99.902344 69.503906 99.855469 69.6875 99.65625 69.871094 C 99.121094 70.375 99.175781 71.152344 99.785156 71.519531 C 100.230469 71.792969 100.761719 71.679688 101.113281 71.230469 C 101.320312 70.96875 101.335938 70.496094 101.144531 70.097656 C 101.015625 69.824219 101.023438 69.761719 101.632812 66.367188 C 101.976562 64.472656 102.28125 62.808594 102.3125 62.679688 C 102.367188 62.480469 103.753906 60.6875 103.808594 60.742188 C 103.816406 60.753906 103.617188 61.929688 103.351562 63.359375 C 103.097656 64.792969 102.40625 68.585938 101.832031 71.800781 L 100.777344 77.632812 L 100.519531 77.878906 C 100.382812 78.007812 99.449219 79.113281 98.441406 80.320312 C 97.441406 81.527344 96.574219 82.550781 96.527344 82.601562 C 96.472656 82.640625 96.089844 83.113281 95.664062 83.640625 C 95.03125 84.433594 94.894531 84.664062 94.847656 84.960938 C 94.800781 85.296875 94.726562 85.695312 94.320312 87.878906 C 94.238281 88.320312 93.726562 91.160156 93.183594 94.183594 C 92.214844 99.617188 92.199219 99.695312 91.992188 99.808594 C 91.753906 99.929688 91.519531 100.359375 91.519531 100.695312 C 91.519531 101.175781 92.03125 101.679688 92.519531 101.679688 C 92.800781 101.679688 93.152344 101.488281 93.351562 101.230469 C 93.550781 100.976562 93.574219 100.464844 93.398438 100.136719 C 93.296875 99.9375 93.367188 99.496094 94.246094 94.617188 C 94.769531 91.703125 95.257812 89.046875 95.3125 88.71875 C 95.375 88.390625 95.542969 87.488281 95.679688 86.71875 C 95.808594 85.953125 95.9375 85.238281 95.960938 85.144531 C 95.992188 84.992188 96.246094 84.671875 97.136719 83.648438 C 97.28125 83.488281 97.359375 83.441406 97.359375 83.519531 C 97.359375 83.59375 97.214844 84.414062 97.046875 85.359375 C 96.335938 89.230469 95.984375 91.160156 95.433594 94.238281 C 94.921875 97.136719 94.832031 97.496094 94.664062 97.65625 C 94.144531 98.144531 94.246094 98.992188 94.871094 99.320312 C 95.335938 99.550781 95.902344 99.382812 96.207031 98.921875 C 96.375 98.65625 96.328125 97.992188 96.113281 97.753906 C 95.960938 97.585938 96.015625 97.230469 97.367188 89.878906 C 97.535156 88.953125 97.945312 86.695312 98.28125 84.863281 L 98.878906 81.527344 L 99.617188 80.648438 C 100.015625 80.160156 100.359375 79.769531 100.367188 79.785156 C 100.375 79.792969 99.40625 85.207031 98.207031 91.808594 C 96.046875 103.792969 96.039062 103.816406 95.824219 103.945312 C 95.296875 104.246094 95.207031 105.089844 95.664062 105.542969 C 95.847656 105.726562 96 105.792969 96.296875 105.816406 C 96.65625 105.855469 96.71875 105.832031 96.984375 105.601562 C 97.425781 105.214844 97.519531 104.585938 97.199219 104.207031 C 97.144531 104.136719 97.679688 101.023438 99.039062 93.480469 C 100.097656 87.632812 100.976562 82.839844 100.992188 82.824219 C 101.046875 82.761719 101.839844 83.792969 101.839844 83.9375 C 101.839844 84.03125 101.640625 85.207031 101.390625 86.550781 C 101.152344 87.894531 100.824219 89.695312 100.679688 90.550781 C 100.433594 91.902344 100.375 92.113281 100.207031 92.246094 C 99.761719 92.601562 99.726562 93.359375 100.144531 93.785156 C 100.328125 93.96875 100.480469 94.03125 100.777344 94.054688 C 101.136719 94.097656 101.199219 94.070312 101.464844 93.839844 C 101.929688 93.441406 102 92.800781 101.632812 92.390625 C 101.519531 92.265625 101.519531 92.175781 101.703125 91.222656 C 101.816406 90.664062 102.113281 89.039062 102.367188 87.617188 C 102.625 86.199219 102.855469 85.039062 102.878906 85.046875 C 102.902344 85.046875 103.113281 85.289062 103.351562 85.574219 C 103.753906 86.0625 103.777344 86.121094 103.726562 86.433594 C 103.679688 86.785156 102.929688 90.960938 102.40625 93.800781 C 102.230469 94.769531 101.832031 97 101.519531 98.761719 C 100.96875 101.871094 100.945312 101.96875 100.726562 102.136719 C 99.984375 102.726562 100.320312 103.886719 101.257812 103.976562 C 101.617188 104.015625 101.679688 103.992188 101.945312 103.761719 C 102.390625 103.367188 102.472656 102.847656 102.152344 102.335938 C 102.0625 102.191406 102.121094 101.769531 102.585938 99.183594 C 102.886719 97.542969 103.390625 94.703125 103.71875 92.878906 C 104.046875 91.054688 104.433594 88.894531 104.585938 88.078125 C 104.816406 86.847656 104.847656 86.511719 104.800781 86.0625 L 104.742188 85.527344 L 102.992188 83.433594 C 102.023438 82.273438 101.246094 81.3125 101.246094 81.289062 C 101.257812 81.265625 101.816406 78.167969 102.488281 74.414062 L 103.71875 67.585938 L 104.070312 67.976562 C 104.265625 68.183594 104.472656 68.433594 104.535156 68.527344 C 104.632812 68.679688 104.535156 69.304688 103.710938 73.847656 C 102.800781 78.910156 102.777344 79 102.550781 79.214844 C 102.152344 79.585938 102.054688 80.046875 102.28125 80.488281 C 102.441406 80.785156 102.839844 81.039062 103.160156 81.039062 C 103.457031 81.039062 103.863281 80.800781 104.046875 80.519531 C 104.207031 80.28125 104.167969 79.601562 103.984375 79.375 C 103.878906 79.257812 103.953125 78.753906 104.710938 74.558594 C 105.214844 71.792969 105.59375 69.894531 105.640625 69.921875 C 105.824219 70 106.480469 70.855469 106.480469 71 C 106.480469 71.089844 106.320312 72.039062 106.121094 73.121094 C 105.921875 74.199219 105.761719 75.160156 105.761719 75.257812 C 105.761719 75.351562 105.648438 75.542969 105.511719 75.6875 C 105.105469 76.105469 105.015625 76.527344 105.238281 76.96875 C 105.398438 77.265625 105.800781 77.519531 106.121094 77.519531 C 106.414062 77.519531 106.824219 77.28125 107.007812 77 C 107.175781 76.742188 107.128906 76.070312 106.929688 75.847656 C 106.808594 75.710938 106.800781 75.65625 106.910156 75.113281 C 107.054688 74.414062 107.558594 71.632812 107.632812 71.136719 C 107.703125 70.664062 107.574219 70.425781 106.71875 69.398438 C 106.3125 68.910156 105.894531 68.382812 105.792969 68.222656 C 105.6875 68.0625 105.550781 67.902344 105.496094 67.863281 C 105.433594 67.832031 105.070312 67.425781 104.679688 66.96875 L 103.984375 66.144531 L 104.671875 62.335938 C 105.054688 60.238281 105.390625 58.496094 105.425781 58.472656 C 105.457031 58.449219 109.640625 58.441406 114.71875 58.472656 L 123.960938 58.519531 L 123.160156 58.9375 L 122.359375 59.359375 L 114.0625 59.359375 L 113.824219 59.160156 C 113.351562 58.761719 112.550781 58.921875 112.289062 59.472656 C 112.121094 59.832031 112.128906 60.144531 112.320312 60.457031 C 112.671875 61.039062 113.488281 61.121094 113.910156 60.609375 C 114.007812 60.496094 114.398438 60.480469 117.113281 60.480469 L 120.199219 60.480469 L 119.320312 60.96875 L 118.441406 61.449219 L 113.878906 61.390625 L 109.320312 61.335938 L 109.097656 61.152344 C 108.632812 60.761719 107.824219 60.929688 107.566406 61.472656 C 107.320312 61.992188 107.472656 62.511719 107.945312 62.800781 C 108.359375 63.054688 108.761719 63 109.175781 62.617188 C 109.359375 62.457031 109.40625 62.457031 113.695312 62.503906 C 116.128906 62.535156 118.257812 62.519531 118.535156 62.480469 C 118.945312 62.425781 119.359375 62.246094 120.777344 61.496094 C 121.734375 60.992188 123.433594 60.105469 124.542969 59.527344 L 126.566406 58.480469 L 127.214844 58.480469 C 127.710938 58.480469 127.902344 58.511719 128.015625 58.609375 C 128.097656 58.6875 128.335938 58.761719 128.542969 58.785156 C 128.894531 58.816406 128.960938 58.792969 129.222656 58.558594 C 129.566406 58.265625 129.695312 57.878906 129.59375 57.488281 C 129.503906 57.183594 129.136719 56.824219 128.824219 56.753906 C 128.519531 56.671875 128.03125 56.855469 127.824219 57.121094 L 127.632812 57.359375 L 119.847656 57.34375 L 112.0625 57.320312 L 112.945312 56.855469 L 113.816406 56.398438 L 124.351562 56.398438 L 124.566406 56.609375 C 124.726562 56.761719 124.902344 56.832031 125.183594 56.863281 C 125.535156 56.894531 125.601562 56.871094 125.863281 56.640625 C 126.207031 56.34375 126.335938 55.960938 126.230469 55.566406 C 126.144531 55.265625 125.777344 54.902344 125.464844 54.832031 C 125.199219 54.761719 124.703125 54.921875 124.519531 55.121094 C 124.375 55.28125 124.28125 55.28125 120.207031 55.28125 L 116.039062 55.273438 L 116.839844 54.839844 L 117.640625 54.398438 L 126.191406 54.398438 L 126.40625 54.609375 C 126.566406 54.761719 126.742188 54.832031 127.023438 54.863281 C 127.375 54.894531 127.441406 54.871094 127.703125 54.640625 C 128.046875 54.34375 128.175781 53.960938 128.070312 53.566406 C 127.984375 53.265625 127.617188 52.902344 127.304688 52.832031 C 127.039062 52.761719 126.542969 52.921875 126.359375 53.121094 C 126.214844 53.28125 126.121094 53.28125 121.640625 53.28125 C 117.304688 53.28125 117.046875 53.289062 116.871094 53.433594 C 116.671875 53.585938 115.671875 54.121094 111.839844 56.144531 L 109.558594 57.34375 L 100.359375 57.304688 C 95.304688 57.289062 91.113281 57.265625 91.054688 57.257812 C 91 57.246094 91.304688 57.046875 91.742188 56.816406 L 92.535156 56.398438 L 99.992188 56.398438 L 100.289062 56.601562 C 100.640625 56.839844 100.992188 56.855469 101.335938 56.640625 C 101.734375 56.398438 101.863281 56.144531 101.824219 55.671875 C 101.777344 55.191406 101.535156 54.902344 101.105469 54.808594 C 100.761719 54.726562 100.246094 54.878906 100.089844 55.121094 C 99.984375 55.273438 99.910156 55.28125 97.367188 55.28125 L 94.761719 55.28125 L 95.59375 54.824219 L 96.433594 54.375 L 102.984375 54.425781 C 109.304688 54.472656 109.542969 54.480469 109.710938 54.625 C 110.121094 55 110.519531 55.054688 110.9375 54.800781 C 111.335938 54.558594 111.464844 54.304688 111.425781 53.832031 C 111.375 53.351562 111.136719 53.0625 110.703125 52.96875 C 110.382812 52.894531 109.855469 53.039062 109.710938 53.230469 C 109.632812 53.34375 108.847656 53.351562 102.824219 53.304688 L 96.023438 53.257812 L 94.3125 54.160156 C 93.367188 54.65625 92.078125 55.335938 91.441406 55.679688 C 90.800781 56.015625 89.863281 56.519531 89.351562 56.792969 L 88.414062 57.28125 L 83.671875 57.265625 L 78.921875 57.238281 L 79.71875 56.824219 L 80.527344 56.414062 L 83.375 56.40625 C 85.839844 56.40625 86.238281 56.425781 86.328125 56.527344 C 86.625 56.886719 87.167969 56.96875 87.574219 56.71875 C 87.976562 56.480469 88.105469 56.222656 88.0625 55.753906 C 88.015625 55.273438 87.777344 54.984375 87.34375 54.886719 C 87.023438 54.816406 86.496094 54.960938 86.351562 55.160156 C 86.273438 55.265625 85.863281 55.28125 83.214844 55.28125 L 80.160156 55.28125 L 78.945312 55.929688 C 78.273438 56.289062 77.441406 56.734375 77.105469 56.929688 L 76.488281 57.28125 L 65.960938 57.265625 L 55.441406 57.238281 L 56.335938 56.769531 L 57.222656 56.296875 L 60.632812 56.34375 C 63.792969 56.398438 64.039062 56.40625 64.191406 56.550781 C 64.726562 57.03125 65.414062 56.953125 65.808594 56.359375 C 66 56.0625 65.929688 55.40625 65.664062 55.144531 C 65.296875 54.777344 64.585938 54.777344 64.167969 55.152344 C 64.007812 55.296875 63.175781 55.320312 60.816406 55.222656 L 59.441406 55.175781 L 60.351562 54.679688 L 61.265625 54.183594 L 69.425781 54.273438 C 76.753906 54.351562 77.601562 54.375 77.726562 54.488281 C 78.257812 54.953125 78.945312 54.863281 79.328125 54.28125 C 79.519531 53.984375 79.449219 53.328125 79.183594 53.0625 C 78.808594 52.6875 78.054688 52.703125 77.6875 53.097656 C 77.550781 53.230469 77.265625 53.238281 69.433594 53.152344 C 64.375 53.097656 61.183594 53.089844 60.960938 53.136719 C 60.664062 53.199219 56.945312 55.105469 53.726562 56.847656 C 52.960938 57.265625 52.921875 57.28125 52.3125 57.28125 C 51.855469 57.28125 51.679688 57.246094 51.679688 57.175781 C 51.679688 57.089844 52.585938 52.03125 52.648438 51.761719 C 52.671875 51.664062 52.566406 51.632812 52.105469 51.617188 C 51.785156 51.601562 51.519531 51.601562 51.511719 51.617188 Z M 51.511719 51.617188 "/>
<path style=" stroke:none;fill-rule:nonzero;fill:rgb(0%,0%,0%);fill-opacity:1;" d="M 135.785156 71.65625 C 135.710938 72.128906 135.71875 72.214844 135.832031 72.328125 C 135.902344 72.398438 137.089844 73.257812 138.464844 74.230469 L 140.976562 76 L 141.511719 75.703125 C 142.039062 75.40625 142.054688 75.398438 141.886719 75.28125 C 141.257812 74.792969 136 71.121094 135.945312 71.121094 C 135.902344 71.121094 135.832031 71.359375 135.785156 71.65625 Z M 135.785156 71.65625 "/>
<path style=" stroke:none;fill-rule:nonzero;fill:rgb(0%,0%,0%);fill-opacity:1;" d="M 21.097656 73.679688 C 18.503906 74.992188 16.359375 76.089844 16.320312 76.128906 C 16.238281 76.207031 15.992188 77.375 16.039062 77.425781 C 16.054688 77.441406 18.222656 76.375 20.847656 75.054688 L 25.632812 72.65625 L 25.734375 72.113281 C 25.792969 71.808594 25.832031 71.503906 25.824219 71.433594 C 25.808594 71.335938 24.695312 71.855469 21.097656 73.679688 Z M 21.097656 73.679688 "/>
<path style=" stroke:none;fill-rule:nonzero;fill:rgb(0%,0%,0%);fill-opacity:1;" d="M 141.390625 76.625 C 140.121094 77.320312 138.039062 78.464844 136.761719 79.160156 C 135.488281 79.855469 134.382812 80.472656 134.3125 80.527344 C 134.199219 80.632812 133.945312 81.808594 134.023438 81.886719 C 134.039062 81.902344 136.207031 80.742188 138.839844 79.304688 C 142.230469 77.441406 143.640625 76.632812 143.6875 76.503906 C 143.792969 76.222656 143.871094 75.359375 143.785156 75.359375 C 143.742188 75.359375 142.671875 75.929688 141.390625 76.625 Z M 141.390625 76.625 "/>
<path style=" stroke:none;fill-rule:nonzero;fill:rgb(0%,0%,0%);fill-opacity:1;" d="M 18.144531 77.742188 L 17.609375 78.046875 L 20.6875 79.960938 C 22.382812 81.015625 23.824219 81.886719 23.878906 81.902344 C 24.03125 81.945312 24.207031 80.886719 24.0625 80.761719 C 23.945312 80.65625 18.761719 77.441406 18.710938 77.441406 C 18.695312 77.441406 18.441406 77.574219 18.144531 77.742188 Z M 18.144531 77.742188 "/>
</g>
</svg>
